# xmcd
#
# Track frame offsets:
#	150
#	16109
#	30634
#	51516
#	64172
#	80033
#	95482
#	111751
#	124922
#	145573
#	159017
#	176538
#	188984
#	203526
#	223297
#	236969
#	250231
#	266446
#	279253
#	295398
#	312793
#
# Disc length: 4389 seconds
#
# Revision: 1
# Processed by: cddbd v1.5.2PL0 Copyright (c) Steve Scherf et al.
# Submitted via: dBpowerAMP V4.0
#
DISCID=30112315
DTITLE=Various Artist - Hott Urban Volume 36 Canada
DYEAR=2018
DGENRE=Urban
TTITLE0=Drake - Nice For What
TTITLE1=Nicki Minaj - Barbie Tingz
TTITLE2=Migos ft. Drake - Walk It Talk It
TTITLE3=XXXtentacion - Sad!
TTITLE4=Cardi B - Be Careful
TTITLE5=Derez De'Shon - Hardaway
TTITLE6=Lil Dicky ft. Chris Brown - Freaky Friday
TTITLE7=Plies - Rock
TTITLE8=Miguel ft. J. Cole and Salaam Remi - Come Through And Chill
TTITLE9=Jaden Smith - Icon
TTITLE10=A$ap Rocky X Gucci Mane X 21Savage ft. London On Da Track - Cocky
TTITLE11=Tory Lanez - B.I.D. (Bust It Down)
TTITLE12=Nicki Minaj - Chun Li
TTITLE13=Cardi B ft. Migos - Drip
TTITLE14=Moneybagg Yo - Bigg Facts
TTITLE15=Rich The Kid - Plug Walk
TTITLE16=Hoodcelebrityy - Walking Trophy
TTITLE17=Kiana Lede - Fairplay
TTITLE18=Ncredible Gang ft. Luke Nasty, Nick Cannon and Fat Joe - Only You
TTITLE19=Lil Jon ft. Offset and 2 Chainz - Alive
TTITLE20=Ty Dolla $ign ft. Gucci Mane and Quavo - Pineapple
EXTD=
EXTT0=
EXTT1=
EXTT2=
EXTT3=
EXTT4=
EXTT5=
EXTT6=
EXTT7=
EXTT8=
EXTT9=
EXTT10=
EXTT11=
EXTT12=
EXTT13=
EXTT14=
EXTT15=
EXTT16=
EXTT17=
EXTT18=
EXTT19=
EXTT20=
PLAYORDER=
